<?xml version="1.0" standalone="no"?>
<!DOCTYPE svg PUBLIC "-//W3C//DTD SVG 20010904//EN"
 "http://www.w3.org/TR/2001/REC-SVG-20010904/DTD/svg10.dtd">
<svg version="1.0" xmlns="http://www.w3.org/2000/svg"
 width="700.000000pt" height="700.000000pt" viewBox="0 0 700.000000 700.000000"
 preserveAspectRatio="xMidYMid meet">
<metadata>
Created by potrace 1.14, written by Peter Selinger 2001-2017
</metadata>
<g transform="translate(0.000000,700.000000) scale(0.100000,-0.100000)"
fill="#000000" stroke="none">
<path d="M0 3500 l0 -3500 3500 0 3500 0 0 3500 0 3500 -3500 0 -3500 0 0
-3500z m5860 1362 c239 -57 400 -165 487 -329 49 -90 66 -178 60 -298 -7 -128
-34 -222 -103 -363 -168 -340 -467 -611 -814 -737 -193 -69 -476 -94 -581 -51
-13 6 -26 -18 -68 -125 -131 -332 -218 -627 -228 -774 -5 -78 -3 -97 15 -137
24 -54 15 -72 -27 -57 -14 6 -68 19 -119 29 -51 10 -108 28 -128 40 -73 46
-118 133 -134 265 -32 258 67 649 302 1193 81 190 260 555 328 672 74 127 182
208 325 245 106 27 391 16 411 -16 3 -6 -10 -29 -28 -52 -54 -66 -129 -181
-203 -312 -76 -133 -281 -549 -356 -720 -57 -132 -60 -128 89 -133 99 -4 105
-3 167 27 272 134 601 693 630 1072 17 209 -70 371 -228 426 -78 27 -317 24
-450 -5 -307 -68 -571 -205 -750 -391 -99 -102 -108 -119 -131 -223 -75 -340
-362 -938 -629 -1313 -155 -217 -369 -448 -516 -558 -98 -73 -197 -128 -291
-161 -75 -26 -99 -30 -200 -30 -134 -1 -198 12 -292 61 -85 44 -149 113 -194
206 -35 74 -64 196 -64 270 l0 41 -50 -73 c-92 -133 -143 -196 -245 -296 -107
-106 -194 -164 -285 -193 -78 -24 -275 -24 -350 1 -122 40 -212 132 -251 257
-57 183 -23 511 87 838 80 239 162 423 379 857 107 213 204 417 216 454 29 85
31 171 5 200 -66 73 -261 -54 -420 -273 -300 -411 -469 -853 -401 -1046 34
-97 6 -132 -74 -90 -147 75 -212 252 -178 486 20 138 52 238 126 389 66 135
152 269 232 362 149 174 373 318 571 369 123 32 353 1 472 -64 66 -36 141
-104 171 -157 14 -23 30 -67 36 -98 22 -121 -10 -208 -354 -978 -293 -656
-396 -1002 -366 -1226 9 -63 40 -103 82 -103 103 1 238 153 424 480 83 145
344 663 358 710 4 14 40 111 80 215 225 587 356 805 508 850 37 11 100 15 229
15 180 0 265 -11 275 -36 3 -7 -39 -80 -94 -161 -109 -164 -212 -352 -301
-548 -309 -681 -473 -1358 -364 -1505 22 -29 69 -37 124 -21 151 46 391 368
632 848 163 326 390 1011 445 1345 14 85 16 235 2 270 -11 30 -47 58 -74 58
-30 0 -33 31 -4 55 33 29 170 50 259 40 126 -15 202 -58 248 -139 l31 -54 74
33 c160 73 421 140 655 169 192 24 188 24 465 21 219 -2 273 -6 345 -23z"/>
</g>
</svg>
